<svg width="20" height="20" viewBox="0 0 20 20" fill="none" xmlns="http://www.w3.org/2000/svg">
<path d="M10 14.8838C9.07524 14.885 8.18867 15.2529 7.53474 15.9069C6.88081 16.5608 6.51289 17.4474 6.51165 18.3722C6.51165 19.2698 7.24189 20.0001 8.13957 20.0001H11.8605C12.7582 20.0001 13.4884 19.2698 13.4884 18.3722C13.4872 17.4474 13.1193 16.5608 12.4653 15.9069C11.8114 15.2529 10.9248 14.885 10 14.8838ZM16.2791 8.2912V4.18606H17.4419C18.0829 4.18606 18.6047 4.707 18.6047 5.34886C18.6039 6.02923 18.374 6.6895 17.9521 7.22327C17.5302 7.75704 16.9409 8.13323 16.2791 8.2912ZM3.72095 8.2912C3.05917 8.13323 2.46986 7.75704 2.04797 7.22327C1.62608 6.6895 1.39619 6.02923 1.39535 5.34886C1.39535 4.707 1.91722 4.18606 2.55815 4.18606H3.72095V8.2912ZM20.0001 5.34886C19.9996 4.67055 19.7299 4.02016 19.2503 3.54052C18.7706 3.06088 18.1202 2.7912 17.4419 2.79071H16.2791V1.62791C16.2791 0.730236 15.5489 0 14.6512 0H5.34886C4.45118 0 3.72095 0.730236 3.72095 1.62791V2.79071H2.55815C1.87984 2.7912 1.22945 3.06088 0.749809 3.54052C0.27017 4.02016 0.000492781 4.67055 0 5.34886C0 7.61771 1.72559 9.47167 3.93025 9.71818C4.63258 12.4177 7.08375 14.4187 10 14.4187C12.9163 14.4187 15.3675 12.4177 16.0698 9.71818C18.2745 9.47167 20.0001 7.61771 20.0001 5.34886Z" fill="#464455"/>
</svg>
