<svg width="20" height="20" viewBox="0 0 20 20" fill="none" xmlns="http://www.w3.org/2000/svg">
<path d="M12.7402 0C11.4686 0 10.4425 -1.38615e-08 9.63603 0.108837C8.79882 0.220465 8.0937 0.462326 7.5337 1.0214C7.04626 1.50977 6.79882 2.10977 6.66952 2.81488C6.54394 3.50047 6.51975 4.3386 6.51417 5.34512C6.51318 5.53015 6.58574 5.708 6.71588 5.83954C6.84602 5.97107 7.02309 6.04553 7.20812 6.04651C7.39316 6.0475 7.57101 5.97494 7.70254 5.8448C7.83408 5.71466 7.90853 5.53759 7.90952 5.35256C7.9151 4.33581 7.94115 3.61488 8.04161 3.06698C8.13929 2.54047 8.29464 2.23442 8.52068 2.00837C8.77836 1.7507 9.14022 1.58326 9.82301 1.49116C10.5253 1.39721 11.4565 1.39535 12.7914 1.39535H13.7216C15.0574 1.39535 15.9886 1.39721 16.6909 1.49116C17.3737 1.58326 17.7346 1.75163 17.9932 2.00837C18.2518 2.26512 18.4174 2.62698 18.5095 3.3107C18.6044 4.01209 18.6053 4.94419 18.6053 6.27907V13.7209C18.6053 15.0558 18.6044 15.9879 18.5095 16.6902C18.4174 17.373 18.25 17.734 17.9923 17.9916C17.7346 18.2493 17.3737 18.4167 16.6909 18.5088C15.9886 18.6028 15.0574 18.6047 13.7216 18.6047H12.7914C11.4565 18.6047 10.5253 18.6028 9.82208 18.5088C9.14022 18.4167 8.77836 18.2484 8.52068 17.9916C8.29464 17.7656 8.13929 17.4595 8.04161 16.933C7.94115 16.3851 7.9151 15.6642 7.90952 14.6474C7.90903 14.5558 7.8905 14.4652 7.85499 14.3807C7.81947 14.2963 7.76767 14.2196 7.70254 14.1552C7.63741 14.0908 7.56023 14.0398 7.4754 14.0052C7.39056 13.9706 7.29974 13.953 7.20812 13.9535C7.1165 13.954 7.02588 13.9725 6.94142 14.008C6.85696 14.0435 6.78032 14.0953 6.71588 14.1605C6.65144 14.2256 6.60046 14.3028 6.56585 14.3876C6.53124 14.4724 6.51368 14.5633 6.51417 14.6549C6.51975 15.6614 6.54394 16.4995 6.66952 17.1851C6.79975 17.8902 7.04626 18.4902 7.53464 18.9786C8.09371 19.5386 8.79975 19.7786 9.63696 19.8921C10.4425 20 11.4686 20 12.7402 20H13.7728C15.0453 20 16.0704 20 16.877 19.8912C17.7142 19.7795 18.4193 19.5377 18.9793 18.9786C19.5393 18.4186 19.7793 17.7135 19.8928 16.8763C20.0007 16.0698 20.0007 15.0437 20.0007 13.7721V6.22791C20.0007 4.95628 20.0007 3.93023 19.8928 3.12372C19.7802 2.28651 19.5393 1.5814 18.9793 1.0214C18.4193 0.461395 17.7142 0.221395 16.877 0.108837C16.0704 -1.38615e-08 15.0444 0 13.7728 0H12.7402Z" fill="white"/>
<path d="M12.7912 9.30178C12.9763 9.30178 13.1537 9.37528 13.2845 9.50612C13.4154 9.63696 13.4889 9.81442 13.4889 9.99945C13.4889 10.1845 13.4154 10.3619 13.2845 10.4928C13.1537 10.6236 12.9763 10.6971 12.7912 10.6971H2.58377L4.40796 12.2599C4.54859 12.3803 4.63563 12.5516 4.64993 12.7362C4.66424 12.9208 4.60464 13.1035 4.48424 13.2441C4.36384 13.3847 4.19251 13.4718 4.00794 13.4861C3.82337 13.5004 3.64068 13.4408 3.50005 13.3204L0.24424 10.5297C0.167649 10.4642 0.106157 10.3829 0.0639949 10.2913C0.0218323 10.1998 0 10.1002 0 9.99945C0 9.89868 0.0218323 9.79909 0.0639949 9.70756C0.106157 9.61603 0.167649 9.53472 0.24424 9.46922L3.50005 6.67852C3.56968 6.61891 3.65038 6.57359 3.73752 6.54516C3.82466 6.51673 3.91655 6.50575 4.00794 6.51283C4.09933 6.51991 4.18844 6.54493 4.27016 6.58644C4.35188 6.62796 4.42463 6.68517 4.48424 6.7548C4.54385 6.82443 4.58917 6.90512 4.6176 6.99227C4.64603 7.07941 4.65701 7.1713 4.64993 7.26269C4.64285 7.35408 4.61783 7.44318 4.57632 7.5249C4.5348 7.60663 4.47759 7.67937 4.40796 7.73899L2.5847 9.30178H12.7912Z" fill="white"/>
</svg>
