<svg width="25" height="24" viewBox="0 0 25 24" fill="none" xmlns="http://www.w3.org/2000/svg">
<path d="M0.855194 24.0001C1.077 24.0001 1.29028 23.9148 1.4609 23.7527L5.70939 19.4957C7.71478 21.2207 10.2729 22.1683 12.9182 22.1659C15.759 22.1659 18.5999 21.0825 20.7582 18.9241C22.8569 16.8255 24.0086 14.0443 24.0086 11.084C24.0086 8.12373 22.8569 5.33407 20.7582 3.24395C16.433 -1.08132 9.39482 -1.08132 5.07809 3.24395C0.957568 7.36447 0.769883 13.9419 4.5065 18.2928L0.249487 22.5498C0.1704 22.6287 0.107656 22.7225 0.0648459 22.8257C0.0220356 22.9289 0 23.0395 0 23.1513C0 23.263 0.0220356 23.3736 0.0648459 23.4768C0.107656 23.58 0.1704 23.6738 0.249487 23.7527C0.420108 23.9148 0.633386 24.0001 0.855194 24.0001ZM6.28097 4.44683C8.10662 2.62118 10.5124 1.69982 12.9182 1.69982C15.3239 1.69982 17.7212 2.61265 19.5554 4.44683C21.3298 6.2213 22.3024 8.57588 22.3024 11.084C22.3024 13.5922 21.3298 15.9467 19.5554 17.7212C15.8955 21.3811 9.94081 21.3811 6.28097 17.7212C2.62113 14.0614 2.62113 8.10667 6.28097 4.44683Z" fill="black"/>
</svg>
