<svg width="69" height="70" viewBox="0 0 69 70" fill="none" xmlns="http://www.w3.org/2000/svg">
    <path style="mix-blend-mode:overlay" opacity="0.6" d="M61.5931 62.4293C59.3404 64.8341 56.4867 66.6467 53.2879 67.6342C52.7844 67.7896 52.0434 68.0777 51.5237 68.1912C49.9152 68.543 47.4224 69.0826 43.9975 69.3067C31.9807 70.094 26.3245 69.5952 17.9276 67.6204C13.9744 66.6906 12.456 66.1011 9.51694 64.3422C9.21197 64.1595 8.95229 63.9748 8.68984 63.7617C8.51384 63.6192 8.333 63.466 8.13902 63.2864C7.64248 62.8277 7.24553 62.3954 6.76282 61.9263C6.21684 61.396 5.70267 60.8325 5.22273 60.2393C4.39736 59.2188 3.67399 58.1102 3.06681 56.9302C2.88839 56.5833 2.71965 56.2301 2.56163 55.871C2.42435 55.559 2.29469 55.2425 2.17332 54.9222C1.27741 52.5568 0.715522 49.9659 0.504252 47.2854C-0.205283 38.2854 -0.258187 30.0312 1.18405 19.8799C1.56406 17.2036 2.24317 14.1623 3.31784 11.8495C3.50629 11.4438 3.68886 11.0342 3.92295 10.6558C4.96202 8.97636 5.41879 8.24302 6.66531 7.07832C7.12278 6.59127 7.63557 6.15749 8.17774 5.76523C8.36032 5.63309 8.54634 5.50579 8.73445 5.38299C9.01522 5.2 9.30152 5.02635 9.5899 4.8617C13.4526 2.65752 18.5286 1.40946 22.4625 0.924488C32.5761 -0.321844 37.545 -0.134013 47.8778 0.708983C48.9338 0.795116 50.5306 1.0632 51.542 1.22543C52.0783 1.31157 52.6074 1.42018 53.1274 1.5499C56.432 2.3756 59.2245 3.77448 61.5848 6.08762C62.758 7.23744 63.5326 8.5412 64.378 9.9674C64.6072 10.3541 64.823 10.7495 65.0253 11.1535C66.3724 13.8468 67.3486 17.014 67.7479 20.5227C69.2379 33.6135 69.1715 39.4978 67.6231 49.0264C67.3119 50.9414 66.9841 52.3081 66.426 54.064C66.3195 54.3995 66.1909 54.7586 66.0439 55.1318C65.8756 55.5597 65.683 56.0056 65.4738 56.4553C64.7611 57.9877 63.868 59.5609 63.0782 60.6388C62.6187 61.2659 62.1225 61.8637 61.5931 62.4286V62.4293Z" fill="url(#paint0_radial_184_28045)"/>
    <defs>
        <radialGradient id="paint0_radial_184_28045" cx="0" cy="0" r="1" gradientUnits="userSpaceOnUse" gradientTransform="translate(12.2991 8.38899) scale(66.3184 66.3448)">
            <stop stop-color="#C5DEB9"/>
            <stop offset="1" stop-color="#52823B"/>
        </radialGradient>
    </defs>
</svg>
