<svg width="187" height="178" viewBox="0 0 187 178" fill="none" xmlns="http://www.w3.org/2000/svg">
<path d="M13.4064 145.391H16.5294V152.477C15.6149 153.205 14.5486 153.764 13.3305 154.154C12.1123 154.544 10.8597 154.738 9.57253 154.738C7.76086 154.738 6.12863 154.344 4.67239 153.557C3.21615 152.77 2.07393 151.683 1.24574 150.296C0.417547 148.908 0 147.341 0 145.598C0 143.855 0.414097 142.289 1.24574 140.901C2.07393 139.514 3.22305 138.426 4.68619 137.64C6.14934 136.853 7.79537 136.459 9.6243 136.459C11.115 136.459 12.4678 136.704 13.6859 137.194C14.904 137.684 15.9289 138.406 16.7571 139.351L14.6763 141.384C13.3236 140.031 11.6879 139.351 9.77613 139.351C8.52349 139.351 7.40888 139.614 6.4392 140.138C5.46608 140.663 4.70345 141.398 4.15477 142.347C3.60609 143.296 3.33003 144.38 3.33003 145.598C3.33003 146.817 3.60609 147.849 4.15477 148.798C4.70345 149.747 5.46608 150.492 6.4392 151.031C7.41233 151.573 8.51659 151.842 9.75198 151.842C11.1392 151.842 12.3573 151.538 13.4064 150.927V145.391Z" fill="white"/>
<path d="M20.5632 135.641H23.738V154.482H20.5632V135.641Z" fill="white"/>
<path d="M30.2878 153.771C29.1869 153.177 28.3277 152.352 27.71 151.296C27.0923 150.24 26.7817 149.039 26.7817 147.704C26.7817 146.368 27.0889 145.174 27.71 144.124C28.3277 143.075 29.1869 142.254 30.2878 141.66C31.3886 141.067 32.624 140.77 33.9939 140.77C35.3639 140.77 36.6269 141.067 37.7277 141.66C38.8285 142.254 39.6878 143.075 40.3054 144.124C40.9231 145.174 41.2337 146.368 41.2337 147.704C41.2337 149.039 40.9231 150.24 40.3054 151.296C39.6878 152.356 38.8285 153.181 37.7277 153.771C36.6269 154.365 35.3846 154.661 33.9939 154.661C32.6032 154.661 31.3886 154.365 30.2878 153.771ZM36.8891 150.775C37.6518 149.995 38.0314 148.974 38.0314 147.704C38.0314 146.433 37.6518 145.408 36.8891 144.632C36.1265 143.852 35.1637 143.465 33.9939 143.465C32.8241 143.465 31.8648 143.855 31.1125 144.632C30.3602 145.412 29.9841 146.433 29.9841 147.704C29.9841 148.974 30.3602 149.999 31.1125 150.775C31.8648 151.555 32.8275 151.942 33.9939 151.942C35.1603 151.942 36.1265 151.552 36.8891 150.775Z" fill="white"/>
<path d="M55.3337 141.633C56.3758 142.209 57.1902 143.02 57.7838 144.069C58.3773 145.118 58.6741 146.33 58.6741 147.7C58.6741 149.07 58.3773 150.285 57.7838 151.345C57.1902 152.404 56.3758 153.219 55.3337 153.795C54.2915 154.372 53.1114 154.658 51.7932 154.658C50.8614 154.658 50.0125 154.496 49.243 154.175C48.4735 153.854 47.8247 153.371 47.3002 152.729V154.482H44.2808V135.641H47.4555V142.575C47.9973 141.981 48.6357 141.533 49.3707 141.229C50.1057 140.925 50.9167 140.773 51.7966 140.773C53.1183 140.773 54.2984 141.06 55.3371 141.636L55.3337 141.633ZM54.3192 150.775C55.0714 149.995 55.4476 148.974 55.4476 147.704C55.4476 146.433 55.0714 145.408 54.3192 144.632C53.5669 143.852 52.6041 143.465 51.4377 143.465C50.6751 143.465 49.9918 143.638 49.3811 143.986C48.7703 144.335 48.2906 144.829 47.9352 145.471C47.5797 146.112 47.4037 146.858 47.4037 147.704C47.4037 148.549 47.5797 149.295 47.9352 149.937C48.2906 150.579 48.7737 151.076 49.3811 151.421C49.9918 151.769 50.6751 151.942 51.4377 151.942C52.6041 151.942 53.5669 151.552 54.3192 150.775Z" fill="white"/>
<path d="M71.304 142.206C72.3634 143.162 72.8913 144.604 72.8913 146.534V154.482H69.896V152.832C69.5061 153.426 68.9505 153.878 68.2327 154.192C67.515 154.506 66.6454 154.661 65.6308 154.661C64.6163 154.661 63.726 154.489 62.9634 154.14C62.2007 153.792 61.6141 153.312 61.2 152.694C60.7859 152.076 60.5789 151.379 60.5789 150.599C60.5789 149.381 61.0309 148.404 61.9385 147.666C62.8426 146.93 64.2712 146.561 66.2175 146.561H69.72V146.358C69.72 145.408 69.4371 144.68 68.8711 144.173C68.3052 143.665 67.4632 143.41 66.3452 143.41C65.5825 143.41 64.8337 143.527 64.0987 143.766C63.3637 144.004 62.7391 144.332 62.2318 144.756L60.986 142.444C61.6969 141.902 62.5527 141.488 63.55 141.201C64.5473 140.915 65.6067 140.77 66.7247 140.77C68.7228 140.77 70.248 141.25 71.3074 142.206H71.304ZM68.4087 151.804C69.0264 151.441 69.4612 150.92 69.7166 150.244V148.67H66.4418C64.6128 148.67 63.6984 149.27 63.6984 150.472C63.6984 151.048 63.9261 151.503 64.3851 151.842C64.8406 152.18 65.4756 152.349 66.2899 152.349C67.1043 152.349 67.791 152.166 68.4087 151.804Z" fill="white"/>
<path d="M76.9529 135.641H80.1276V154.482H76.9529V135.641Z" fill="white"/>
<path d="M95.0042 153.557C93.5479 152.77 92.4057 151.68 91.5775 150.282C90.7493 148.884 90.3318 147.324 90.3318 145.598C90.3318 143.873 90.7459 142.309 91.5775 140.915C92.4057 139.517 93.5479 138.426 95.0042 137.64C96.4604 136.853 98.0927 136.459 99.9043 136.459C101.716 136.459 103.348 136.853 104.804 137.64C106.261 138.426 107.403 139.514 108.231 140.901C109.059 142.289 109.477 143.855 109.477 145.598C109.477 147.341 109.063 148.908 108.231 150.296C107.403 151.683 106.261 152.77 104.804 153.557C103.348 154.344 101.716 154.738 99.9043 154.738C98.0927 154.738 96.4604 154.344 95.0042 153.557ZM103.103 151.045C104.052 150.51 104.794 149.768 105.336 148.812C105.878 147.856 106.147 146.786 106.147 145.598C106.147 144.411 105.874 143.341 105.336 142.385C104.794 141.429 104.049 140.684 103.103 140.152C102.154 139.621 101.088 139.351 99.9043 139.351C98.7207 139.351 97.6544 139.617 96.7054 140.152C95.7565 140.687 95.0111 141.429 94.4728 142.385C93.931 143.341 93.6618 144.411 93.6618 145.598C93.6618 146.786 93.931 147.856 94.4728 148.812C95.0145 149.768 95.7599 150.513 96.7054 151.045C97.6544 151.576 98.7207 151.845 99.9043 151.845C101.088 151.845 102.154 151.58 103.103 151.045Z" fill="white"/>
<path d="M124.481 142.268C125.513 143.269 126.03 144.749 126.03 146.713V154.482H122.856V147.117C122.856 145.933 122.576 145.039 122.017 144.439C121.458 143.838 120.664 143.538 119.629 143.538C118.463 143.538 117.538 143.89 116.862 144.59C116.185 145.294 115.847 146.306 115.847 147.624V154.482H112.672V140.922H115.692V142.675C116.216 142.05 116.875 141.574 117.673 141.253C118.466 140.932 119.363 140.77 120.364 140.77C122.072 140.77 123.446 141.27 124.478 142.268H124.481Z" fill="white"/>
<path d="M130.068 135.641H133.242V154.482H130.068V135.641Z" fill="white"/>
<path d="M137.556 138.143C137.166 137.781 136.973 137.325 136.973 136.784C136.973 136.242 137.166 135.79 137.556 135.424C137.946 135.061 138.429 134.878 139.002 134.878C139.575 134.878 140.061 135.051 140.448 135.4C140.838 135.748 141.031 136.183 141.031 136.708C141.031 137.267 140.841 137.736 140.458 138.116C140.079 138.495 139.592 138.689 138.999 138.689C138.405 138.689 137.939 138.506 137.553 138.143H137.556ZM137.404 140.925H140.579V154.485H137.404V140.925Z" fill="white"/>
<path d="M156.546 142.268C157.578 143.269 158.095 144.749 158.095 146.713V154.482H154.92V147.117C154.92 145.933 154.641 145.039 154.082 144.439C153.523 143.838 152.729 143.538 151.694 143.538C150.528 143.538 149.603 143.89 148.926 144.59C148.25 145.294 147.912 146.306 147.912 147.624V154.482H144.737V140.922H147.757V142.675C148.281 142.05 148.94 141.574 149.737 141.253C150.531 140.932 151.428 140.77 152.429 140.77C154.137 140.77 155.51 141.27 156.542 142.268H156.546Z" fill="white"/>
<path d="M174.828 148.718H164.189C164.376 149.719 164.862 150.509 165.649 151.093C166.436 151.676 167.412 151.969 168.582 151.969C170.073 151.969 171.298 151.479 172.264 150.496L173.966 152.453C173.355 153.181 172.585 153.73 171.653 154.102C170.722 154.475 169.673 154.661 168.506 154.661C167.016 154.661 165.704 154.365 164.572 153.771C163.437 153.177 162.561 152.352 161.943 151.296C161.325 150.24 161.015 149.039 161.015 147.704C161.015 146.368 161.315 145.194 161.915 144.135C162.516 143.079 163.351 142.25 164.417 141.66C165.483 141.067 166.684 140.77 168.023 140.77C169.362 140.77 170.525 141.063 171.564 141.646C172.606 142.23 173.417 143.051 174 144.111C174.583 145.17 174.877 146.392 174.877 147.779C174.877 148 174.859 148.311 174.825 148.718H174.828ZM165.445 144.211C164.742 144.811 164.317 145.612 164.162 146.609H171.854C171.719 145.629 171.305 144.832 170.611 144.221C169.918 143.61 169.055 143.307 168.023 143.307C166.991 143.307 166.149 143.607 165.445 144.207V144.211Z" fill="white"/>
<path d="M34.37 177.109C33.3037 176.523 32.4651 175.705 31.8578 174.662C31.2504 173.62 30.9468 172.454 30.9468 171.159C30.9468 169.865 31.2504 168.702 31.8578 167.656C32.4651 166.614 33.3071 165.799 34.3803 165.209C35.4535 164.622 36.6579 164.326 37.9864 164.326C38.9837 164.326 39.9051 164.491 40.7471 164.826C41.5925 165.157 42.3068 165.644 42.8969 166.283L41.9963 167.183C40.9472 166.12 39.6221 165.592 38.0244 165.592C36.9615 165.592 35.9953 165.834 35.1292 166.321C34.2596 166.807 33.5763 167.473 33.0863 168.315C32.5928 169.161 32.3478 170.107 32.3478 171.156C32.3478 172.205 32.5928 173.151 33.0863 173.996C33.5797 174.842 34.2596 175.505 35.1292 175.991C35.9988 176.478 36.965 176.719 38.0244 176.719C39.6359 176.719 40.961 176.181 41.9963 175.108L42.8969 176.008C42.3068 176.647 41.5891 177.137 40.7402 177.475C39.8913 177.814 38.9664 177.983 37.9692 177.983C36.6372 177.983 35.4397 177.689 34.3734 177.099L34.37 177.109Z" fill="white"/>
<path d="M57.1522 164.446V177.879H55.7512V171.68H47.3485V177.879H45.9302V164.446H47.3485V170.434H55.7512V164.446H57.1522Z" fill="white"/>
<path d="M69.948 174.29H62.4666L60.8551 177.879H59.3782L65.5172 164.446H66.9182L73.0572 177.879H71.5595L69.948 174.29ZM69.4304 173.14L66.2073 165.927L62.9843 173.14H69.4304Z" fill="white"/>
<path d="M75.2793 164.446H76.6976V176.65H84.2169V177.879H75.2759V164.446H75.2793Z" fill="white"/>
<path d="M86.5806 164.446H87.9989V176.65H95.5182V177.879H86.5771V164.446H86.5806Z" fill="white"/>
<path d="M107.375 176.647V177.875H97.8787V164.443H107.085V165.671H99.2969V170.448H106.24V171.656H99.2969V176.647H107.375Z" fill="white"/>
<path d="M121.938 164.446V177.879H120.768L112.134 166.98V177.879H110.716V164.446H111.885L120.537 175.346V164.446H121.938Z" fill="white"/>
<path d="M135.769 171.159H137.132V176.281C136.504 176.83 135.762 177.254 134.906 177.548C134.05 177.841 133.146 177.989 132.2 177.989C130.858 177.989 129.65 177.696 128.574 177.106C127.5 176.519 126.655 175.701 126.041 174.659C125.427 173.616 125.119 172.45 125.119 171.156C125.119 169.861 125.427 168.698 126.041 167.653C126.655 166.607 127.497 165.796 128.574 165.206C129.647 164.619 130.862 164.322 132.218 164.322C133.239 164.322 134.181 164.484 135.037 164.812C135.893 165.14 136.617 165.62 137.204 166.262L136.321 167.162C135.258 166.113 133.909 165.589 132.273 165.589C131.186 165.589 130.202 165.83 129.329 166.307C128.453 166.786 127.766 167.452 127.266 168.301C126.765 169.154 126.517 170.103 126.517 171.152C126.517 172.201 126.765 173.147 127.266 173.993C127.766 174.838 128.449 175.501 129.319 175.988C130.189 176.474 131.165 176.716 132.252 176.716C133.633 176.716 134.802 176.371 135.762 175.68V171.152L135.769 171.159Z" fill="white"/>
<path d="M150.635 176.647V177.875H141.138V164.443H150.345V165.671H142.556V170.448H149.499V171.656H142.556V176.647H150.635Z" fill="white"/>
<mask id="mask0_20_80" style="mask-type:luminance" maskUnits="userSpaceOnUse" x="78" y="76" width="36" height="53">
<path d="M93.0164 76.5093C88.1818 93.7246 83.3473 110.943 78.5127 128.159L102.42 93.0447C104.176 90.4665 105.936 87.8055 107.703 85.0617C109.563 82.1695 111.34 79.3152 113.038 76.5093H93.0164Z" fill="white"/>
</mask>
<g mask="url(#mask0_20_80)">
<path d="M102.342 60.5352L54.6338 92.5142L89.2187 144.126L136.927 112.147L102.342 60.5352Z" fill="url(#paint0_linear_20_80)"/>
</g>
<path d="M53.5425 72.9614C57.6696 66.9008 68.695 50.714 79.3165 35.114C91.5393 17.1601 103.227 0 103.227 0C103.227 0 88.7787 52.6571 88.0781 55.1973H128.194C124.073 61.2475 119.953 67.3012 115.833 73.3514C95.0695 73.2202 74.3094 73.0925 53.5459 72.9614" fill="white"/>
<path d="M44.0496 112.172C38.0556 112.172 32.5515 111.213 27.5341 109.301C22.5166 107.389 18.1479 104.662 14.4314 101.124C10.7114 97.5867 7.82651 93.4348 5.76983 88.6685C3.71315 83.9022 2.68481 78.6699 2.68481 72.9649C2.68481 67.2598 3.71315 62.0241 5.76983 57.2578C7.82651 52.4915 10.7321 48.3395 14.4866 44.8019C18.241 41.2643 22.6443 38.5377 27.6997 36.6257C32.7517 34.7136 38.3109 33.7542 44.3774 33.7542C53.07 33.7542 59.6507 35.9216 62.5149 37.1123C65.0443 38.1615 67.2632 39.4799 67.2632 39.4799C68.785 40.3842 70.0238 41.2746 70.9659 42.0029C67.9188 46.3136 64.8683 50.6243 61.8213 54.9385C60.61 53.7685 58.6396 52.1222 55.8583 50.8141C51.531 48.7813 47.6937 48.7019 45.2436 48.7019C41.5616 48.7019 38.204 49.2817 35.1741 50.4345C32.1409 51.5907 29.5252 53.2508 27.3236 55.4148C25.122 57.5822 23.4242 60.1466 22.2336 63.1044C21.0431 66.0656 20.4461 69.3513 20.4461 72.9614C20.4461 76.5715 21.0431 79.7502 22.2336 82.708C23.4242 85.6693 25.1185 88.2509 27.3236 90.4528C29.5252 92.6582 32.1236 94.3356 35.1189 95.4883C38.1142 96.6445 41.4167 97.2209 45.0296 97.2209C48.6426 97.2209 51.8691 96.6618 55.1543 95.5435C58.4395 94.4253 61.6349 92.5305 64.7372 89.8592L74.6997 102.533C70.5829 105.639 65.8 108.02 60.3512 109.68C54.8989 111.34 49.4674 112.172 44.0531 112.172M58.6741 100.258V76.5094H74.7031V102.533L58.6741 100.258Z" fill="white"/>
<path d="M183.545 57.4753C181.474 52.7987 178.597 48.702 174.921 45.2023C171.239 41.7026 166.916 38.9899 161.953 37.0606C154.658 34.2236 148.374 34.0855 145.61 34.1649C142.511 34.2512 136.224 34.4928 129.357 38.0132C120.268 42.6725 115.754 50.2033 114.032 53.52C119.481 53.451 124.93 53.3854 130.378 53.3164C133.004 51.7426 138.529 48.9229 145.61 48.9539C147.077 48.9608 150.821 49.0091 154.938 50.6727C157.591 51.7461 159.455 53.1059 159.883 53.4234C160.766 54.0792 161.598 54.8039 162.381 55.6012C164.486 57.7479 166.129 60.2847 167.309 63.208C168.493 66.1382 169.083 69.3893 169.083 72.9615C169.083 76.5336 168.493 79.7848 167.309 82.715C166.132 85.6451 164.472 88.1853 162.326 90.3252C160.18 92.4719 157.698 94.1147 154.883 95.2606C152.053 96.4064 148.968 96.9725 145.61 96.9725C145.61 96.9725 141.114 96.9656 136.283 95.2606C125.078 91.3019 116.341 78.1247 115.291 76.5094C112.862 80.7546 110.433 85.0032 108.007 89.2483C110.008 93.6143 112.738 97.4384 116.189 100.721C119.871 104.227 124.229 106.94 129.264 108.869C134.299 110.799 139.782 111.761 145.717 111.761C151.653 111.761 156.984 110.799 161.953 108.869C166.916 106.94 171.239 104.241 174.921 100.772C178.597 97.3072 181.471 93.1967 183.545 88.4476C185.615 83.6951 186.651 78.5388 186.651 72.9615C186.651 67.3841 185.615 62.1588 183.545 57.4753Z" fill="white"/>
<defs>
<linearGradient id="paint0_linear_20_80" x1="81.2736" y1="81.3314" x2="100.666" y2="110.262" gradientUnits="userSpaceOnUse">
<stop stop-color="#F99F1B"/>
<stop offset="0.31" stop-color="#FFD056"/>
<stop offset="0.76" stop-color="#F59C31"/>
<stop offset="1" stop-color="#F28621"/>
</linearGradient>
</defs>
</svg>
