<svg width="19" height="21" viewBox="0 0 19 21" fill="none" xmlns="http://www.w3.org/2000/svg">
<path d="M16.59 4.84756L10.65 1.41756C9.68 0.857559 8.48 0.857559 7.5 1.41756L1.57 4.84756C1.09178 5.12483 0.694938 5.52307 0.419353 6.00228C0.143768 6.48148 -0.000857938 7.02477 3.82875e-06 7.57756V14.4176C3.82875e-06 15.5376 0.600004 16.5776 1.57 17.1476L7.51 20.5776C8.48 21.1376 9.68 21.1376 10.66 20.5776L16.6 17.1476C17.0782 16.8703 17.4751 16.472 17.7507 15.9928C18.0262 15.5136 18.1709 14.9704 18.17 14.4176V7.57756C18.1657 7.02464 18.0177 6.48233 17.7408 6.00376C17.4638 5.52519 17.0673 5.12678 16.59 4.84756ZM9.08 6.33756C10.37 6.33756 11.41 7.37756 11.41 8.66756C11.41 9.95756 10.37 10.9976 9.08 10.9976C7.79 10.9976 6.75 9.95756 6.75 8.66756C6.75 7.38756 7.79 6.33756 9.08 6.33756ZM11.76 15.6576H6.4C5.59 15.6576 5.12 14.7576 5.57 14.0876C6.25 13.0776 7.57 12.3976 9.08 12.3976C10.59 12.3976 11.91 13.0776 12.59 14.0876C13.04 14.7476 12.56 15.6576 11.76 15.6576Z" fill="white"/>
</svg>
