<svg width="22" height="20" viewBox="0 0 22 20" fill="none" xmlns="http://www.w3.org/2000/svg">
<path d="M19.2541 8.08016C19.1602 5.90564 18.2303 3.85136 16.6584 2.34588C15.0865 0.840403 12.994 0 10.8174 0C8.6409 0 6.54842 0.840403 4.97652 2.34588C3.40463 3.85136 2.47473 5.90564 2.38083 8.08016C1.56875 8.3947 0.892456 8.98369 0.469373 9.74488C0.0462898 10.5061 -0.0968701 11.3914 0.0647486 12.2471C0.226367 13.1029 0.682559 13.875 1.35412 14.4294C2.02568 14.9839 2.8702 15.2856 3.74106 15.2823C4.10535 15.2803 4.45414 15.1346 4.71174 14.8771C4.96933 14.6195 5.11496 14.2707 5.11703 13.9064V9.18879C5.11496 8.8245 4.96933 8.47572 4.71174 8.21812C4.45414 7.96052 4.10535 7.81489 3.74106 7.81283H3.57595C3.72294 5.9932 4.54958 4.2956 5.89141 3.05779C7.23324 1.81998 8.99189 1.13271 10.8174 1.13271C12.643 1.13271 14.4017 1.81998 15.7435 3.05779C17.0853 4.2956 17.9119 5.9932 18.0589 7.81283H17.8938C17.5295 7.81489 17.1807 7.96052 16.9232 8.21812C16.6656 8.47572 16.5199 8.8245 16.5179 9.18879V13.9064C16.5199 14.2707 16.6656 14.6195 16.9232 14.8771C17.1807 15.1346 17.5295 15.2803 17.8938 15.2823H17.9646C17.7437 16.1777 17.2298 16.9736 16.5047 17.5435C15.7795 18.1133 14.8847 18.4244 13.9625 18.4274H12.7595C12.6693 18.3039 12.5508 18.2038 12.4141 18.1355C12.2773 18.0671 12.1262 18.0324 11.9733 18.0343H9.61446C9.3538 18.0343 9.10381 18.1378 8.91949 18.3221C8.73518 18.5064 8.63163 18.7564 8.63163 19.0171C8.63163 19.2778 8.73518 19.5277 8.91949 19.7121C9.10381 19.8964 9.3538 19.9999 9.61446 19.9999H11.9733C12.1262 20.0018 12.2773 19.9671 12.4141 19.8987C12.5508 19.8303 12.6693 19.7302 12.7595 19.6068H13.9625C15.2422 19.6041 16.4779 19.1398 17.4428 18.2991C18.4076 17.4585 19.0368 16.298 19.2147 15.0307C19.9206 14.7664 20.5295 14.2938 20.9607 13.6756C21.3919 13.0574 21.6251 12.3227 21.6293 11.569C21.6336 10.8153 21.4087 10.078 20.9845 9.45499C20.5604 8.83194 19.9569 8.35249 19.2541 8.08016Z" fill="white"/>
</svg>
