<svg width="24" height="20" viewBox="0 0 24 20" fill="none" xmlns="http://www.w3.org/2000/svg">
<path d="M1.33333 20H6.66667C7.4 20 8 19.4 8 18.6667C8 17.9333 7.4 17.3333 6.66667 17.3333H1.33333C0.6 17.3333 0 17.9333 0 18.6667C0 19.4 0.6 20 1.33333 20ZM0 1.33333C0 2.06667 0.6 2.66667 1.33333 2.66667H22.6667C23.4 2.66667 24 2.06667 24 1.33333C24 0.6 23.4 0 22.6667 0H1.33333C0.6 0 0 0.6 0 1.33333ZM1.33333 11.3333H14.6667C15.4 11.3333 16 10.7333 16 10C16 9.26667 15.4 8.66667 14.6667 8.66667H1.33333C0.6 8.66667 0 9.26667 0 10C0 10.7333 0.6 11.3333 1.33333 11.3333Z" fill="#464455"/>
<path d="M1.33333 20H6.66667C7.4 20 8 19.4 8 18.6667C8 17.9333 7.4 17.3333 6.66667 17.3333H1.33333C0.6 17.3333 0 17.9333 0 18.6667C0 19.4 0.6 20 1.33333 20ZM0 1.33333C0 2.06667 0.6 2.66667 1.33333 2.66667H22.6667C23.4 2.66667 24 2.06667 24 1.33333C24 0.6 23.4 0 22.6667 0H1.33333C0.6 0 0 0.6 0 1.33333ZM1.33333 11.3333H14.6667C15.4 11.3333 16 10.7333 16 10C16 9.26667 15.4 8.66667 14.6667 8.66667H1.33333C0.6 8.66667 0 9.26667 0 10C0 10.7333 0.6 11.3333 1.33333 11.3333Z" fill="#464455"/>
</svg>
