<svg width="24" height="19" viewBox="0 0 24 19" fill="none" xmlns="http://www.w3.org/2000/svg">
<path fill-rule="evenodd" clip-rule="evenodd" d="M17.6476 10.8893C17.6476 10.6787 17.7312 10.4767 17.8802 10.3278C18.0291 10.1789 18.231 10.0952 18.4416 10.0952H23.2059C23.4165 10.0952 23.6184 10.1789 23.7673 10.3278C23.9163 10.4767 23.9999 10.6787 23.9999 10.8893C23.9999 11.0998 23.9163 11.3018 23.7673 11.4507C23.6184 11.5996 23.4165 11.6833 23.2059 11.6833H18.4416C18.231 11.6833 18.0291 11.5996 17.8802 11.4507C17.7312 11.3018 17.6476 11.0998 17.6476 10.8893Z" fill="black"/>
<path fill-rule="evenodd" clip-rule="evenodd" d="M20.8237 7.71278C21.0343 7.71278 21.2363 7.79643 21.3852 7.94534C21.5341 8.09426 21.6178 8.29622 21.6178 8.50682V13.2711C21.6178 13.4817 21.5341 13.6836 21.3852 13.8325C21.2363 13.9814 21.0343 14.0651 20.8237 14.0651C20.6131 14.0651 20.4112 13.9814 20.2623 13.8325C20.1133 13.6836 20.0297 13.4817 20.0297 13.2711V8.50682C20.0297 8.29622 20.1133 8.09426 20.2623 7.94534C20.4112 7.79643 20.6131 7.71278 20.8237 7.71278ZM9.31014 2.15449C7.94129 2.15449 6.6285 2.69826 5.66057 3.66619C4.69265 4.63411 4.14887 5.9469 4.14887 7.31575C4.14887 8.68461 4.69265 9.9974 5.66057 10.9653C6.6285 11.9332 7.94129 12.477 9.31014 12.477C10.679 12.477 11.9918 11.9332 12.9597 10.9653C13.9276 9.9974 14.4714 8.68461 14.4714 7.31575C14.4714 5.9469 13.9276 4.63411 12.9597 3.66619C11.9918 2.69826 10.679 2.15449 9.31014 2.15449ZM2.56079 7.31575C2.56079 5.52572 3.27188 3.80899 4.53763 2.54324C5.80338 1.2775 7.5201 0.566406 9.31014 0.566406C11.1002 0.566406 12.8169 1.2775 14.0827 2.54324C15.3484 3.80899 16.0595 5.52572 16.0595 7.31575C16.0595 9.10579 15.3484 10.8225 14.0827 12.0883C12.8169 13.354 11.1002 14.0651 9.31014 14.0651C7.5201 14.0651 5.80338 13.354 4.53763 12.0883C3.27188 10.8225 2.56079 9.10579 2.56079 7.31575Z" fill="black"/>
<path fill-rule="evenodd" clip-rule="evenodd" d="M9.31021 14.0638C7.80274 14.0639 6.31358 14.3941 4.94741 15.0313C3.58123 15.6685 2.3712 16.5972 1.40236 17.7521C1.33531 17.832 1.25318 17.8979 1.16067 17.946C1.06816 17.9942 0.967074 18.0236 0.863183 18.0327C0.759293 18.0418 0.654633 18.0303 0.55518 17.9989C0.455727 17.9675 0.363429 17.9169 0.283554 17.8498C0.203679 17.7828 0.137793 17.7006 0.0896572 17.6081C0.0415212 17.5156 0.0120779 17.4145 0.00300871 17.3106C-0.00606052 17.2067 0.00542182 17.1021 0.0368001 17.0026C0.0681785 16.9032 0.118838 16.8109 0.185887 16.731C1.30384 15.3986 2.70005 14.3272 4.27638 13.5921C5.85271 12.857 7.57091 12.4761 9.31021 12.4761C11.0495 12.4761 12.7677 12.857 14.344 13.5921C15.9204 14.3272 17.3166 15.3986 18.4345 16.731C18.5016 16.8109 18.5522 16.9032 18.5836 17.0026C18.615 17.1021 18.6265 17.2067 18.6174 17.3106C18.6083 17.4145 18.5789 17.5156 18.5308 17.6081C18.4826 17.7006 18.4167 17.7828 18.3369 17.8498C18.257 17.9169 18.1647 17.9675 18.0652 17.9989C17.9658 18.0303 17.8611 18.0418 17.7572 18.0327C17.6534 18.0236 17.5523 17.9942 17.4598 17.946C17.3672 17.8979 17.2851 17.832 17.2181 17.7521C16.2491 16.5972 15.0389 15.6685 13.6726 15.0313C12.3063 14.3941 10.817 14.0639 9.30942 14.0638H9.31021Z" fill="black"/>
</svg>
