<svg width="24" height="24" viewBox="0 0 24 24" fill="none" xmlns="http://www.w3.org/2000/svg">
<g clip-path="url(#clip0_116_755)">
<path d="M4.01812 13.4289C4.47173 12.5908 4.73442 11.9195 4.73442 10.9688L4.73437 9.56249C4.73437 7.63308 5.4817 5.81077 6.83877 4.43128C8.00174 3.24901 9.49503 2.51129 11.1094 2.30766V0.93751C11.1094 0.41973 11.5291 1.17045e-05 12.0469 1.17045e-05C12.5647 1.17045e-05 12.9844 0.41973 12.9844 0.93751V2.30959C13.818 2.41646 14.6201 2.66673 15.3779 3.05724C15.8382 3.29443 16.019 3.85979 15.7818 4.32005C15.6154 4.64297 15.2875 4.82831 14.9477 4.82831C14.8031 4.82831 14.6563 4.79475 14.519 4.72397C13.772 4.33908 12.9671 4.13775 12.1263 4.12561H11.9492C9.00425 4.16836 6.60937 6.60609 6.60937 9.56249L6.60942 10.9687C6.60942 12.4558 6.12295 13.4791 5.66704 14.3214C5.49735 14.6349 5.17481 14.8128 4.84176 14.8128C4.69106 14.8128 4.53815 14.7764 4.39631 14.6996C3.94097 14.4531 3.77165 13.8842 4.01812 13.4289ZM0.274599 22.3996L22.3996 0.274605C22.7657 -0.091535 23.3593 -0.091535 23.7254 0.274605C24.0915 0.640745 24.0916 1.23432 23.7254 1.60041L18.7281 6.5977C19.147 7.53506 19.3594 8.53223 19.3594 9.56249V10.9687C19.3594 12.2178 19.8128 13.0109 20.3868 14.015C20.9523 15.0042 21.5933 16.1254 21.9175 17.8551C22.0722 18.6809 21.8533 19.5251 21.3169 20.1715C20.781 20.8172 19.9923 21.1875 19.1532 21.1875H14.8412C14.8412 22.7383 13.5795 24 12.0287 24C10.4779 24 9.21622 22.7383 9.21622 21.1875H4.92234C4.68483 21.1875 4.45153 21.1584 4.22517 21.1006L1.60041 23.7254C1.51347 23.8126 1.41015 23.8817 1.29639 23.9288C1.18264 23.976 1.06068 24.0001 0.937551 24C0.814409 24.0001 0.69245 23.9759 0.57868 23.9288C0.464911 23.8817 0.36157 23.8125 0.274599 23.7254C-0.0915413 23.3593 -0.0915413 22.7657 0.274599 22.3996ZM12.0287 22.125C12.5457 22.125 12.9662 21.7044 12.9662 21.1875H11.0912C11.0912 21.7044 11.5117 22.125 12.0287 22.125ZM19.1532 19.3125C19.536 19.3125 19.7692 19.1004 19.8741 18.9739C19.9793 18.8471 20.1453 18.5781 20.0745 18.2005C19.8086 16.7815 19.275 15.8482 18.759 14.9456C18.1324 13.8494 17.4844 12.716 17.4844 10.9687V9.56249C17.4844 9.04668 17.4127 8.54221 17.2707 8.05514L6.01335 19.3125H19.1532Z" fill="black"/>
</g>
<defs>
<clipPath id="clip0_116_755">
<rect width="24" height="24" fill="white" transform="matrix(-1 0 0 1 24 0)"/>
</clipPath>
</defs>
</svg>
