<svg width="10" height="15" viewBox="0 0 10 15" fill="none" xmlns="http://www.w3.org/2000/svg">
    <path d="M1.40356 9.33685V9.64965L0.937836 8.85439C0.806943 8.63088 0.741868 8.37718 0.750804 8.12008C0.75974 7.86299 0.842266 7.61413 0.988075 7.39954L0.988081 7.39954L5.27513 1.09087L5.2752 1.09076C5.37374 0.94593 5.51992 0.84028 5.68685 0.787692C5.85366 0.735146 6.03421 0.737656 6.19944 0.794935C6.36482 0.852266 6.50782 0.962163 6.60185 1.11C6.69615 1.25825 6.73443 1.4344 6.70791 1.60839L6.7079 1.60842L6.12685 5.41672H8.19423H8.19449C8.45931 5.41699 8.72008 5.48379 8.94975 5.61126C9.17949 5.73877 9.37061 5.92291 9.50139 6.14613C9.63227 6.3695 9.69741 6.62306 9.6886 6.88005C9.6798 7.13703 9.59746 7.38582 9.45187 7.60041L9.45173 7.60063L5.16186 13.9092C5.16185 13.9093 5.16184 13.9093 5.16183 13.9093C5.06329 14.0543 4.91701 14.16 4.74995 14.2126C4.583 14.2652 4.4023 14.2626 4.23697 14.2052C4.07148 14.1477 3.92846 14.0376 3.83453 13.8895C3.74037 13.7411 3.70233 13.5648 3.72913 13.3908L1.40356 9.33685ZM1.40356 9.33685C1.4317 9.355 1.46052 9.37226 1.48997 9.38858C1.71976 9.51596 1.98064 9.58261 2.24552 9.58272H2.24562H4.31293L3.72917 13.3906L1.40356 9.33685Z" fill="url(#paint0_linear_72_767)" stroke="white" stroke-width="0.5"/>
    <defs>
        <linearGradient id="paint0_linear_72_767" x1="5.21969" y1="14.0002" x2="5.21969" y2="1.00005" gradientUnits="userSpaceOnUse">
            <stop stop-color="white"/>
            <stop offset="1" stop-color="white" stop-opacity="0.65"/>
        </linearGradient>
    </defs>
</svg>
