<svg width="16" height="16" viewBox="0 0 16 16" fill="none" xmlns="http://www.w3.org/2000/svg">
<g id="Iconly/Bold/Add-User">
<g id="Add-User">
<path id="Vector" d="M6 10.0122C9.25344 10.0122 12 10.5475 12 12.615C12 14.6825 9.23582 15.2 6 15.2C2.74656 15.2 0 14.6639 0 12.5972C0 10.5296 2.76338 10.0122 6 10.0122ZM13.5992 4C13.9962 4 14.3184 4.32756 14.3184 4.72929V5.67029H15.2808C15.677 5.67029 16 5.99785 16 6.39958C16 6.80132 15.677 7.12888 15.2808 7.12888H14.3184V8.07071C14.3184 8.47244 13.9962 8.8 13.5992 8.8C13.203 8.8 12.88 8.47244 12.88 8.07071V7.12888H11.9192C11.5222 7.12888 11.2 6.80132 11.2 6.39958C11.2 5.99785 11.5222 5.67029 11.9192 5.67029H12.88V4.72929C12.88 4.32756 13.203 4 13.5992 4ZM6 0C8.20366 0 9.97011 1.7893 9.97011 4.02147C9.97011 6.25364 8.20366 8.04294 6 8.04294C3.79634 8.04294 2.02989 6.25364 2.02989 4.02147C2.02989 1.7893 3.79634 0 6 0Z" fill="white"/>
</g>
</g>
</svg>
