<svg width="20" height="20" viewBox="0 0 20 20" fill="none" xmlns="http://www.w3.org/2000/svg">
<path d="M15.4545 20H4.54545C4.30435 20 4.07312 19.9042 3.90263 19.7337C3.73214 19.5632 3.63636 19.332 3.63636 19.0909C3.63636 18.8498 3.73214 18.6186 3.90263 18.4481C4.07312 18.2776 4.30435 18.1818 4.54545 18.1818H15.4545C15.6957 18.1818 15.9269 18.2776 16.0974 18.4481C16.2679 18.6186 16.3636 18.8498 16.3636 19.0909C16.3636 19.332 16.2679 19.5632 16.0974 19.7337C15.9269 19.9042 15.6957 20 15.4545 20ZM20 4.54545V11.8182C20 12.4151 19.8824 13.0062 19.654 13.5577C19.4256 14.1091 19.0908 14.6102 18.6687 15.0323C18.2466 15.4544 17.7455 15.7892 17.194 16.0176C16.6425 16.2461 16.0515 16.3636 15.4545 16.3636H4.54545C3.94854 16.3636 3.35746 16.2461 2.80598 16.0176C2.2545 15.7892 1.75342 15.4544 1.33133 15.0323C0.478895 14.1799 0 13.0237 0 11.8182V4.54545C0 3.33993 0.478895 2.18377 1.33133 1.33133C2.18377 0.478895 3.33993 0 4.54545 0H15.4545C16.0515 0 16.6425 0.117572 17.194 0.346002C17.7455 0.574433 18.2466 0.909248 18.6687 1.33133C19.0908 1.75342 19.4256 2.2545 19.654 2.80598C19.8824 3.35746 20 3.94854 20 4.54545ZM3.63636 6.36364C3.63636 6.60474 3.73214 6.83597 3.90263 7.00646C4.07312 7.17695 4.30435 7.27273 4.54545 7.27273H10C10.2411 7.27273 10.4723 7.17695 10.6428 7.00646C10.8133 6.83597 10.9091 6.60474 10.9091 6.36364C10.9091 6.12253 10.8133 5.8913 10.6428 5.72081C10.4723 5.55032 10.2411 5.45455 10 5.45455H4.54545C4.30435 5.45455 4.07312 5.55032 3.90263 5.72081C3.73214 5.8913 3.63636 6.12253 3.63636 6.36364ZM16.3636 10C16.3636 9.75889 16.2679 9.52766 16.0974 9.35718C15.9269 9.18669 15.6957 9.09091 15.4545 9.09091H4.54545C4.30435 9.09091 4.07312 9.18669 3.90263 9.35718C3.73214 9.52766 3.63636 9.75889 3.63636 10C3.63636 10.2411 3.73214 10.4723 3.90263 10.6428C4.07312 10.8133 4.30435 10.9091 4.54545 10.9091H15.4545C15.6957 10.9091 15.9269 10.8133 16.0974 10.6428C16.2679 10.4723 16.3636 10.2411 16.3636 10Z" fill="white"/>
</svg>
