<svg width="19" height="25" viewBox="0 0 19 25" fill="none" xmlns="http://www.w3.org/2000/svg">
<path d="M18.5625 15.4263L17.3274 13.3761C17.068 12.9191 16.8334 12.0546 16.8334 11.5482V8.42342C16.8319 7.04512 16.4402 5.6954 15.7036 4.53043C14.967 3.36545 13.9157 2.43283 12.6711 1.84046C12.3535 1.27645 11.8902 0.808115 11.3297 0.484391C10.7691 0.160668 10.1319 -0.00655559 9.48465 0.000196677C8.13841 0.000196677 6.92804 0.728892 6.2858 1.87751C3.8774 3.07554 2.21004 5.55804 2.21004 8.42342V11.5482C2.21004 12.0546 1.97538 12.9191 1.71601 13.3637L0.468584 15.4263C-0.0254474 16.2538 -0.136605 17.1678 0.172165 18.0076C0.468583 18.8351 1.17258 19.4774 2.08653 19.7861C4.48259 20.6013 7.00214 20.9965 9.5217 20.9965C12.0413 20.9965 14.5608 20.6013 16.9569 19.7985C17.8214 19.5144 18.4884 18.8598 18.8095 18.0076C19.1306 17.1554 19.0441 16.2168 18.5625 15.4263ZM12.9923 22.2439C12.7325 22.9629 12.2577 23.5845 11.6324 24.0243C11.007 24.464 10.2615 24.7005 9.497 24.7017C8.52129 24.7017 7.55793 24.3065 6.87864 23.6025C6.48341 23.232 6.18699 22.738 6.01408 22.2316C6.17464 22.2563 6.3352 22.2686 6.50811 22.2933C6.79218 22.3304 7.0886 22.3674 7.38502 22.3921C8.08901 22.4539 8.80536 22.491 9.5217 22.491C10.2257 22.491 10.9297 22.4539 11.6213 22.3921C11.8807 22.3674 12.1401 22.3551 12.3871 22.318L12.9923 22.2439Z" fill="#464455"/>
</svg>
