<svg width="20" height="15" viewBox="0 0 20 15" fill="none" xmlns="http://www.w3.org/2000/svg">
<g id="Iconly/Bold/Add-User">
<g id="Iconly/Bold/3-User">
<g id="3-User">
<path id="3-Friends" d="M9.95366 9.58148C13.0729 9.58148 15.7363 10.076 15.7363 12.0549C15.7363 14.0329 13.09 14.5455 9.95366 14.5455C6.83441 14.5455 4.17099 14.0509 4.17099 12.0729C4.17099 10.094 6.81731 9.58148 9.95366 9.58148ZM14.941 8.38989C16.1335 8.36778 17.4155 8.53153 17.8893 8.64779C18.893 8.84511 19.5531 9.24792 19.8266 9.83332C20.0578 10.3139 20.0578 10.8715 19.8266 11.3512C19.4082 12.2592 18.0594 12.5507 17.5352 12.626C17.4269 12.6424 17.3398 12.5482 17.3512 12.4393C17.619 9.92338 15.4888 8.73048 14.9377 8.45621C14.9141 8.44393 14.9092 8.4251 14.9117 8.41363C14.9133 8.40545 14.9231 8.39235 14.941 8.38989ZM5.05964 8.39022C5.07754 8.39267 5.0865 8.40577 5.08813 8.41314C5.09057 8.42542 5.08568 8.44343 5.06289 8.45653C4.511 8.73081 2.38075 9.92371 2.64856 12.4389C2.65996 12.5486 2.57367 12.6419 2.46541 12.6263C1.94119 12.551 0.59239 12.2596 0.173993 11.3516C-0.0579977 10.871 -0.0579977 10.3142 0.173993 9.83364C0.447498 9.24825 1.10684 8.84543 2.1105 8.6473C2.58507 8.53186 3.86631 8.36811 5.05964 8.39022ZM9.95366 0C12.0774 0 13.7803 1.71115 13.7803 3.84805C13.7803 5.98412 12.0774 7.69691 9.95366 7.69691C7.82993 7.69691 6.12704 5.98412 6.12704 3.84805C6.12704 1.71115 7.82993 0 9.95366 0ZM15.1485 0.641723C17.1998 0.641723 18.8107 2.58294 18.2621 4.74522C17.8917 6.20092 16.5511 7.16785 15.0574 7.12855C14.9076 7.12445 14.7603 7.11054 14.6178 7.08597C14.5144 7.06796 14.4623 6.95088 14.521 6.8641C15.0908 6.0208 15.4155 5.00639 15.4155 3.91748C15.4155 2.78107 15.0606 1.72163 14.4444 0.852957C14.4249 0.825938 14.4102 0.784183 14.4298 0.753071C14.4461 0.72769 14.4762 0.714591 14.5047 0.708041C14.7122 0.665467 14.9255 0.641723 15.1485 0.641723ZM4.85084 0.641641C5.07388 0.641641 5.28715 0.665385 5.49553 0.707959C5.52321 0.714509 5.55414 0.728427 5.57042 0.752989C5.58914 0.784101 5.57531 0.825857 5.55577 0.852875C4.93957 1.72155 4.58467 2.78099 4.58467 3.91739C4.58467 5.00631 4.90945 6.02072 5.47925 6.86402C5.53786 6.9508 5.48577 7.06788 5.38239 7.08589C5.23912 7.11127 5.0926 7.12437 4.94283 7.12847C3.44913 7.16777 2.10847 6.20084 1.7381 4.74513C1.18865 2.58286 2.79956 0.641641 4.85084 0.641641Z" fill="white"/>
</g>
</g>
</g>
</svg>
