<svg width="25" height="23" viewBox="0 0 25 23" fill="none" xmlns="http://www.w3.org/2000/svg">
<path fill-rule="evenodd" clip-rule="evenodd" d="M7.15563 1.52245L19.9881 7.29902C20.9079 7.71252 21.6747 8.05711 22.2449 8.37789C22.8 8.69116 23.4127 9.10592 23.741 9.76878C23.9547 10.2006 24.0658 10.676 24.0658 11.1578C24.0658 11.6396 23.9547 12.1149 23.741 12.5468C23.4127 13.2109 22.8012 13.6257 22.2461 13.9377C21.676 14.2597 20.9079 14.6043 19.9881 15.0178L7.17819 20.7819C6.23464 21.2079 5.44897 21.56 4.81994 21.7793C4.20845 21.991 3.47918 22.1778 2.75617 21.976C2.28798 21.8453 1.85664 21.6074 1.49627 21.2812C1.1359 20.955 0.856389 20.5493 0.679859 20.0964C0.406693 19.3985 0.520721 18.6529 0.669834 18.0239C0.82396 17.3748 1.09838 16.5578 1.42542 15.5779L2.70354 11.7599C2.83761 11.3614 2.84639 11.3176 2.8514 11.285C2.85828 11.2317 2.85828 11.1778 2.8514 11.1246C2.84639 11.092 2.83887 11.0481 2.70604 10.6497L1.40036 6.7176C1.07582 5.74022 0.805164 4.92574 0.653545 4.27666C0.505684 3.64888 0.394163 2.90456 0.667328 2.20787C0.844465 1.75552 1.12438 1.35057 1.48495 1.02501C1.84551 0.699455 2.27686 0.462218 2.74489 0.332049C3.46665 0.13156 4.19467 0.318265 4.80365 0.528778C5.43268 0.746809 6.21584 1.09892 7.15563 1.52245ZM5.12945 12.4115H11.7293C12.0616 12.4115 12.3803 12.2794 12.6153 12.0445C12.8503 11.8095 12.9823 11.4907 12.9823 11.1584C12.9823 10.8261 12.8503 10.5074 12.6153 10.2724C12.3803 10.0374 12.0616 9.90536 11.7293 9.90536H5.09937C5.09435 9.89033 5.08934 9.87529 5.08434 9.86025L3.7987 5.98582C3.4491 4.93451 3.21604 4.22779 3.09324 3.70276C2.99299 3.27672 3.00552 3.12635 3.00803 3.1063C3.04362 3.02255 3.09703 2.94755 3.16455 2.88652C3.23206 2.8255 3.31206 2.77992 3.39898 2.75294C3.41778 2.75294 3.57065 2.75545 3.98416 2.8983C4.49415 3.07498 5.1733 3.37947 6.18326 3.83433L18.9042 9.55827C19.8942 10.0031 20.557 10.3026 21.0169 10.562C21.389 10.7712 21.488 10.8815 21.5018 10.8953C21.54 10.9777 21.5598 11.0675 21.5598 11.1584C21.5598 11.2493 21.54 11.3391 21.5018 11.4216C21.4893 11.4341 21.389 11.5444 21.0169 11.7549C20.557 12.013 19.8942 12.3125 18.9042 12.7573L6.20582 18.4712C5.1921 18.9286 4.51044 19.2343 3.99919 19.411C3.58318 19.5551 3.43156 19.5564 3.41276 19.5576C3.32549 19.5307 3.24517 19.485 3.17742 19.4237C3.10967 19.3625 3.05613 19.2871 3.02056 19.203C3.02056 19.1842 3.00552 19.0326 3.10827 18.6053C3.23358 18.079 3.46915 17.3698 3.82251 16.316L5.08058 12.5556L5.10313 12.4879L5.12945 12.4115Z" fill="white"/>
</svg>
