<svg width="270" height="180" viewBox="0 0 270 180" fill="none" xmlns="http://www.w3.org/2000/svg">
<path d="M267.904 136.51H239.515C241.589 128.078 242.689 119.266 242.689 110.198C242.689 92.1741 238.344 75.1617 230.642 60.1408H250.774C251.933 60.1408 252.87 59.2053 252.87 58.0526C252.87 56.8999 251.933 55.9644 250.774 55.9644H228.384C209.383 22.5504 173.368 0 132.065 0C104.593 0 79.4619 9.97693 60.1187 26.4906H26.0537C24.8965 26.4906 23.9574 27.4261 23.9574 28.5788C23.9574 29.7327 24.8965 30.667 26.0537 30.667H55.4949C53.1435 32.914 50.8927 35.2635 48.7473 37.7073H2.09627C0.93913 37.7073 0 38.6429 0 39.7956C0 40.9494 0.93913 41.8838 2.09627 41.8838H45.2603C30.3469 60.6635 21.4419 84.394 21.4419 110.198C21.4419 124.638 24.2317 138.43 29.3011 151.068H23.7777C22.6206 151.068 21.6815 152.003 21.6815 153.156C21.6815 154.31 22.6206 155.244 23.7777 155.244H31.0776C31.8406 156.938 32.6444 158.609 33.4889 160.256H8.68456C7.52742 160.256 6.58829 161.19 6.58829 162.344C6.58829 163.498 7.52742 164.433 8.68456 164.433H35.7457C38.3307 168.979 41.2307 173.325 44.417 177.439H219.713C225.668 169.749 230.625 161.251 234.392 152.142H254.967C256.125 152.142 257.063 151.206 257.063 150.054C257.063 148.901 256.125 147.965 254.967 147.965H236.019C236.893 145.577 237.689 143.149 238.399 140.687H267.904C269.062 140.687 270 139.751 270 138.598C270 137.446 269.062 136.51 267.904 136.51Z" fill="white"/>
<path d="M178.559 177.434H165.158C165.158 176.47 165.942 175.688 166.91 175.688H176.808C177.776 175.688 178.561 176.47 178.561 177.434H178.559Z" fill="#F2F2F2"/>
<path d="M175.384 175.688H168.332L170.625 110.614L172.164 111.633L175.384 175.688Z" fill="#F2F2F2"/>
<path d="M177.562 177.434H164.16C164.16 176.47 164.944 175.688 165.912 175.688H175.81C176.778 175.688 177.563 176.47 177.563 177.434H177.562Z" fill="#F2F2F2"/>
<path d="M170.861 111.19L204.582 130.584L204.213 128.675C204.14 128.298 203.933 127.961 203.628 127.726L181.598 110.739C181.195 110.427 180.666 110.329 180.178 110.475L175.757 111.79C175.341 111.914 174.89 111.861 174.514 111.644L171.577 109.955L170.862 111.188L170.861 111.19Z" fill="#F2F2F2"/>
<path d="M170.146 109.956L136.424 129.35L138.265 129.986C138.631 130.112 139.031 130.102 139.389 129.955L165.166 119.446C165.64 119.252 165.992 118.843 166.111 118.345L167.176 113.883C167.277 113.459 167.55 113.095 167.928 112.877L170.862 111.189L170.147 109.956H170.146Z" fill="#F2F2F2"/>
<path d="M171.576 109.955V71.167L170.101 72.4378C169.809 72.6896 169.62 73.038 169.568 73.4199L165.815 100.915C165.746 101.42 165.925 101.927 166.298 102.277L169.648 105.429C169.966 105.728 170.146 106.143 170.146 106.578V109.955H171.576Z" fill="#F2F2F2"/>
<path d="M174.097 175.688H167.625L169.917 110.614H171.806L174.097 175.688Z" fill="#F2F2F2"/>
<path d="M172.469 110.988C172.679 110.1 172.127 109.211 171.236 109.001C170.345 108.792 169.452 109.341 169.241 110.229C169.031 111.117 169.583 112.006 170.474 112.216C171.365 112.425 172.258 111.876 172.469 110.988Z" fill="#F2F2F2"/>
<path d="M170.748 112.022C171.583 112.022 172.26 111.348 172.26 110.516C172.26 109.684 171.583 109.01 170.748 109.01C169.913 109.01 169.236 109.684 169.236 110.516C169.236 111.348 169.913 112.022 170.748 112.022Z" fill="#F2F2F2"/>
<path d="M137.022 129.556L169.236 110.516L169.208 110.495L136.424 129.349L137.022 129.556Z" fill="#F2F2F2"/>
<path d="M174.097 175.266H167.64V175.688H174.097V175.266Z" fill="#F2F2F2"/>
<path d="M171.098 71.5799L171.541 109.155L171.576 109.14V71.167L171.098 71.5799Z" fill="#F2F2F2"/>
<path d="M204.463 129.964L171.803 111.693L171.799 111.729L204.582 130.584L204.463 129.964Z" fill="#F2F2F2"/>
<path d="M222.587 177.433H201.132C201.132 175.89 202.387 174.639 203.937 174.639H219.783C221.332 174.639 222.588 175.889 222.588 177.433H222.587Z" fill="#ECECEC"/>
<path d="M217.504 174.639H206.215L209.884 70.457L212.35 72.0906L217.504 174.639Z" fill="#ECECEC"/>
<path d="M220.991 177.433H199.536C199.536 175.89 200.792 174.639 202.342 174.639H218.187C219.736 174.639 220.993 175.889 220.993 177.433H220.991Z" fill="#F2F2F2"/>
<path d="M210.263 71.3779L264.25 102.427L263.593 99.02C263.519 98.6429 263.311 98.3052 263.007 98.0702L227.067 70.3577C226.663 70.0462 226.134 69.9484 225.645 70.094L217.711 72.4554C217.294 72.5795 216.843 72.527 216.466 72.3099L211.41 69.4019L210.265 71.3779H210.263Z" fill="#F2F2F2"/>
<path d="M209.118 69.4016L155.131 100.45L158.422 101.586C158.786 101.712 159.185 101.701 159.542 101.555L202.356 84.1003L204.617 74.6245L210.265 71.3764L209.119 69.4004L209.118 69.4016Z" fill="#F2F2F2"/>
<path d="M211.407 69.4022V7.30322L208.774 9.57282C208.482 9.8246 208.293 10.1742 208.24 10.5549L202.118 55.4135C202.048 55.9182 202.229 56.4254 202.601 56.775L208.619 62.4371C208.936 62.7354 209.116 63.1518 209.116 63.5862V69.401H211.406L211.407 69.4022Z" fill="#F2F2F2"/>
<path d="M215.444 174.639H205.083L208.752 70.457H211.775L215.444 174.639Z" fill="#F2F2F2"/>
<path d="M212.715 71.4687C213.276 70.1201 212.633 68.574 211.279 68.0154C209.925 67.4568 208.373 68.0972 207.812 69.4458C207.252 70.7944 207.894 72.3405 209.248 72.8992C210.602 73.4578 212.154 72.8174 212.715 71.4687Z" fill="#ECECEC"/>
<path d="M212.318 71.2239C212.83 69.994 212.243 68.584 211.009 68.0745C209.774 67.5651 208.359 68.1491 207.847 69.379C207.336 70.6089 207.922 72.0189 209.157 72.5284C210.392 73.0378 211.807 72.4538 212.318 71.2239Z" fill="#F2F2F2"/>
<path d="M156.088 100.782L207.663 70.3014L207.617 70.2656L155.131 100.452L156.088 100.782Z" fill="#ECECEC"/>
<path d="M215.445 173.962H205.107V174.639H215.445V173.962Z" fill="#ECECEC"/>
<path d="M210.643 7.96549L211.353 68.1206L211.407 68.0991V7.30322L210.643 7.96549Z" fill="#ECECEC"/>
<path d="M264.058 101.436L211.773 72.1846L211.765 72.2418L264.25 102.428L264.058 101.436Z" fill="#ECECEC"/>
<path d="M63.3063 85.6782C63.3063 78.7676 57.6828 73.1655 50.746 73.1655C43.8092 73.1655 38.1857 78.7676 38.1857 85.6782V114.479C38.1857 121.389 43.8092 126.992 50.746 126.992C57.6828 126.992 63.3063 121.389 63.3063 114.479V85.6782Z" fill="#F2F2F2"/>
<path d="M51.4318 177.495H50.0615V93.1777C50.0615 92.8006 50.3681 92.4951 50.7466 92.4951C51.1252 92.4951 51.4318 92.8006 51.4318 93.1777V177.495Z" fill="#E4E4E4"/>
<path d="M51.4318 104.606L47.6214 98.0311C47.4321 97.7042 47.0129 97.5932 46.6858 97.7817C46.3576 97.9703 46.2462 98.3879 46.4355 98.7137L50.2459 105.289L51.433 104.606H51.4318Z" fill="#E4E4E4"/>
<path d="M51.2474 112.47L55.0578 105.895C55.247 105.568 55.1344 105.151 54.8074 104.963C54.4792 104.774 54.0612 104.886 53.8719 105.212L50.0615 111.787L51.2485 112.47H51.2474Z" fill="#E4E4E4"/>
<path d="M98.7704 60.8234C98.7704 52.0485 91.6295 44.9351 82.8207 44.9351C74.012 44.9351 66.8711 52.0485 66.8711 60.8234V97.3984C66.8711 106.173 74.012 113.287 82.8207 113.287C91.6295 113.287 98.7704 106.173 98.7704 97.3984V60.8234Z" fill="#F2F2F2"/>
<path d="M83.6904 177.419H81.9499V70.3482C81.9499 69.8697 82.3392 69.4819 82.8195 69.4819C83.2999 69.4819 83.6892 69.8697 83.6892 70.3482V177.419H83.6904Z" fill="#E4E4E4"/>
<path d="M83.6904 84.86L78.8522 76.5118C78.6115 76.0978 78.0796 75.9558 77.664 76.1944C77.2483 76.4343 77.1057 76.9641 77.3453 77.3781L82.1835 85.7263L83.6904 84.86Z" fill="#E4E4E4"/>
<path d="M83.458 94.8462L88.2962 86.4981C88.5369 86.084 88.3944 85.553 87.9775 85.3144C87.5619 85.0745 87.0288 85.2165 86.7892 85.6318L81.951 93.9799L83.458 94.8462Z" fill="#E4E4E4"/>
<path d="M58.4944 172.763C59.2263 172.078 59.5605 171.295 59.2718 170.745C58.9149 170.064 57.7194 169.959 56.4437 170.438C56.5083 170.273 56.5694 170.102 56.6245 169.927C57.3049 167.763 56.9156 165.717 55.7573 165.355C54.6277 165.003 53.1819 166.381 52.4799 168.455C51.8989 166.079 50.4052 164.404 49.1247 164.705C47.9196 164.988 47.3291 166.921 47.716 169.137C45.9503 168.36 44.2457 168.422 43.7031 169.359C43.1413 170.329 44.017 171.903 45.6844 173.051C44.8938 173.314 44.35 173.798 44.2757 174.403C44.1847 175.146 44.8243 175.88 45.8401 176.333C45.7838 176.478 45.7682 176.623 45.8018 176.763C45.9072 177.211 46.4786 177.488 47.2237 177.517V177.519H47.3351C47.3351 177.519 47.341 177.519 47.3434 177.519H56.7647V177.511C56.948 177.487 57.0857 177.41 57.1324 177.285C57.1636 177.203 57.1504 177.109 57.1013 177.016C57.5972 176.968 57.9709 176.772 58.0931 176.447C58.189 176.192 58.1171 175.899 57.9182 175.611C59.206 175.525 60.1966 174.963 60.2277 174.239C60.2553 173.603 59.5342 173.027 58.492 172.764L58.4944 172.763Z" fill="#E4E4E4"/>
<path d="M78.3276 168.774C79.674 167.514 80.2885 166.075 79.7578 165.062C79.1002 163.807 76.9021 163.615 74.5555 164.498C74.6753 164.194 74.7867 163.88 74.8885 163.557C76.1391 159.579 75.4251 155.815 73.2929 155.149C71.2146 154.501 68.5577 157.037 67.2664 160.849C66.1967 156.48 63.4512 153.4 61.0974 153.951C58.8813 154.47 57.7949 158.026 58.5076 162.101C55.2602 160.673 52.1265 160.786 51.1287 162.509C50.095 164.293 51.7049 167.188 54.7726 169.298C53.3184 169.783 52.3182 170.671 52.1816 171.784C52.0139 173.152 53.1915 174.502 55.0589 175.334C54.9559 175.601 54.9284 175.868 54.9883 176.126C55.1835 176.95 56.2316 177.46 57.6044 177.513V177.518H57.8092C57.8092 177.518 57.82 177.518 57.8248 177.518H75.152V177.503C75.4898 177.458 75.7426 177.316 75.8276 177.089C75.8851 176.936 75.8599 176.764 75.7713 176.591C76.6829 176.503 77.3693 176.143 77.5945 175.544C77.7706 175.078 77.6388 174.537 77.2734 174.008C79.6428 173.85 81.4624 172.815 81.5211 171.485C81.5714 170.314 80.2454 169.256 78.3288 168.771L78.3276 168.774Z" fill="#F2F2F2"/>
<path d="M196.291 169.674C195.092 168.551 194.545 167.271 195.017 166.368C195.601 165.252 197.56 165.081 199.649 165.867C199.542 165.596 199.443 165.316 199.353 165.03C198.239 161.487 198.875 158.135 200.774 157.543C202.625 156.965 204.99 159.224 206.14 162.619C207.093 158.729 209.537 155.986 211.634 156.477C213.608 156.94 214.575 160.106 213.94 163.734C216.831 162.462 219.621 162.563 220.51 164.096C221.43 165.685 219.997 168.262 217.265 170.142C218.56 170.573 219.45 171.365 219.572 172.356C219.722 173.575 218.674 174.775 217.011 175.517C217.103 175.753 217.127 175.992 217.073 176.221C216.9 176.956 215.965 177.41 214.745 177.457V177.462H214.563C214.563 177.462 214.553 177.462 214.548 177.462H199.12V177.449C198.819 177.41 198.594 177.283 198.518 177.08C198.467 176.944 198.49 176.792 198.569 176.638C197.756 176.559 197.146 176.239 196.944 175.706C196.789 175.289 196.905 174.808 197.229 174.337C195.12 174.196 193.499 173.276 193.448 172.091C193.402 171.05 194.584 170.107 196.29 169.675L196.291 169.674Z" fill="#EAEAEA"/>
<path d="M214.123 174.326C213.639 173.872 213.417 173.355 213.608 172.991C213.844 172.54 214.636 172.47 215.479 172.788C215.436 172.678 215.396 172.565 215.359 172.449C214.909 171.017 215.166 169.664 215.933 169.424C216.68 169.191 217.636 170.103 218.101 171.475C218.486 169.904 219.474 168.795 220.321 168.993C221.118 169.18 221.509 170.46 221.253 171.925C222.421 171.411 223.549 171.452 223.907 172.072C224.278 172.714 223.7 173.755 222.597 174.514C223.12 174.689 223.479 175.008 223.529 175.409C223.588 175.901 223.166 176.387 222.494 176.686C222.531 176.782 222.54 176.878 222.519 176.97C222.449 177.267 222.071 177.45 221.577 177.469L221.504 177.47C221.502 177.47 221.501 177.47 221.498 177.47H215.264V177.464C215.143 177.449 215.052 177.397 215.021 177.315C215.001 177.26 215.009 177.198 215.042 177.136C214.713 177.104 214.467 176.975 214.385 176.759C214.322 176.591 214.37 176.396 214.5 176.206C213.647 176.149 212.993 175.778 212.972 175.298C212.954 174.877 213.431 174.496 214.12 174.322L214.123 174.326Z" fill="#E4E4E4"/>
<path d="M138.152 170.125C137.022 169.066 136.506 167.86 136.951 167.009C137.502 165.957 139.348 165.796 141.318 166.537C141.217 166.281 141.124 166.018 141.038 165.747C139.989 162.408 140.588 159.248 142.378 158.69C144.122 158.146 146.352 160.274 147.436 163.475C148.333 159.808 150.638 157.222 152.615 157.685C154.475 158.121 155.387 161.105 154.789 164.525C157.515 163.326 160.145 163.421 160.983 164.867C161.85 166.364 160.499 168.794 157.925 170.565C159.145 170.973 159.985 171.718 160.099 172.653C160.24 173.801 159.252 174.934 157.684 175.633C157.772 175.856 157.794 176.08 157.743 176.296C157.58 176.989 156.699 177.416 155.547 177.461V177.465H155.376C155.376 177.465 155.367 177.465 155.363 177.465H140.819V177.451C140.535 177.415 140.325 177.295 140.253 177.104C140.205 176.977 140.225 176.832 140.301 176.687C139.535 176.613 138.959 176.311 138.77 175.808C138.622 175.416 138.733 174.964 139.039 174.518C137.051 174.386 135.522 173.518 135.474 172.402C135.431 171.42 136.545 170.531 138.154 170.124L138.152 170.125Z" fill="#F2F2F2"/>
<path d="M154.503 173.307C153.863 172.708 153.571 172.024 153.822 171.542C154.135 170.946 155.179 170.855 156.296 171.275C156.238 171.131 156.186 170.981 156.138 170.828C155.543 168.936 155.882 167.146 156.896 166.83C157.884 166.522 159.147 167.727 159.761 169.54C160.269 167.463 161.575 165.998 162.695 166.261C163.749 166.508 164.265 168.198 163.926 170.135C165.47 169.456 166.96 169.51 167.435 170.329C167.926 171.177 167.16 172.553 165.703 173.557C166.394 173.787 166.869 174.209 166.934 174.739C167.014 175.389 166.454 176.03 165.566 176.426C165.615 176.553 165.628 176.679 165.6 176.802C165.507 177.195 165.008 177.437 164.356 177.462V177.465H164.259C164.259 177.465 164.254 177.465 164.252 177.465H156.014V177.457C155.854 177.436 155.734 177.369 155.693 177.26C155.666 177.188 155.678 177.107 155.721 177.024C155.287 176.982 154.961 176.812 154.853 176.527C154.77 176.305 154.833 176.048 155.006 175.796C153.88 175.721 153.014 175.23 152.986 174.597C152.962 174.041 153.593 173.537 154.504 173.307H154.503Z" fill="#E4E4E4"/>
<path d="M162.785 74.4017C162.682 74.4017 162.582 74.4172 162.49 74.4458C162.494 74.3969 162.495 74.348 162.495 74.2979C162.495 73.1547 161.564 72.2275 160.416 72.2275C159.464 72.2275 158.662 72.8659 158.416 73.7358C158.3 73.7036 158.176 73.6857 158.049 73.6857C157.306 73.6857 156.703 74.2859 156.703 75.027C156.703 75.768 157.306 76.3682 158.049 76.3682C158.073 76.3682 158.096 76.3682 158.12 76.3658V76.3682H162.786C163.331 76.3682 163.773 75.9279 163.773 75.3849C163.773 74.842 163.331 74.4017 162.786 74.4017H162.785Z" fill="#F2F2F2"/>
<path d="M126.496 51.7906C125.935 51.7906 125.409 51.9457 124.959 52.213C124.495 50.2095 122.693 48.7155 120.541 48.7155C120.351 48.7155 120.164 48.7286 119.981 48.7513C118.978 46.5247 116.734 44.9746 114.126 44.9746C110.583 44.9746 107.711 47.8361 107.711 51.3646C107.711 51.4028 107.711 51.4397 107.713 51.4779C107.284 51.2763 106.805 51.1617 106.299 51.1617C104.471 51.1617 102.989 52.6378 102.989 54.4587C102.989 56.2796 104.471 57.7557 106.299 57.7557H126.496C128.149 57.7557 129.49 56.4205 129.49 54.7737C129.49 53.127 128.149 51.7918 126.496 51.7918V51.7906Z" fill="#F2F2F2"/>
<path d="M95.7134 122.802C96.0835 122.802 96.4285 122.903 96.7244 123.08C97.0299 121.763 98.2146 120.779 99.6316 120.779C99.7562 120.779 99.8784 120.788 99.9994 120.803C100.659 119.339 102.135 118.319 103.852 118.319C106.183 118.319 108.072 120.201 108.072 122.523C108.072 122.548 108.072 122.572 108.072 122.597C108.353 122.464 108.67 122.389 109.001 122.389C110.204 122.389 111.178 123.36 111.178 124.557C111.178 125.754 110.203 126.725 109.001 126.725H95.7146C94.6269 126.725 93.7453 125.847 93.7453 124.764C93.7453 123.68 94.6269 122.802 95.7146 122.802H95.7134Z" fill="#F2F2F2"/>
<path d="M227.863 165.72L227.831 165.84C227.828 165.853 227.746 166.159 227.544 166.54C227.356 166.893 227.025 167.377 226.513 167.678C226 167.98 225.414 168.035 225.013 168.028C224.582 168.021 224.272 167.943 224.259 167.94L224.14 167.91L224.171 167.791C224.174 167.777 224.256 167.471 224.458 167.09C224.646 166.737 224.977 166.254 225.49 165.952C226.002 165.65 226.588 165.595 226.989 165.602C227.42 165.609 227.73 165.687 227.743 165.69L227.863 165.72ZM224.447 167.729C224.774 167.786 225.672 167.89 226.389 167.468C227.107 167.046 227.449 166.215 227.557 165.902C227.23 165.844 226.333 165.741 225.615 166.162C224.897 166.584 224.555 167.415 224.447 167.729Z" fill="#E4E4E4"/>
<path d="M226.152 168.575C225.012 169.003 223.742 168.436 223.742 168.436C223.742 168.436 224.32 167.175 225.46 166.747C226.599 166.318 227.87 166.885 227.87 166.885C227.87 166.885 227.291 168.146 226.152 168.575Z" fill="#F2F2F2"/>
<path d="M223.713 152.078V152.231C223.712 152.248 223.706 152.643 223.578 153.162C223.459 153.644 223.206 154.327 222.679 154.847C222.152 155.366 221.462 155.608 220.976 155.72C220.454 155.841 220.056 155.842 220.039 155.842H219.886L219.887 155.689C219.887 155.672 219.893 155.277 220.021 154.758C220.14 154.276 220.393 153.592 220.92 153.073C221.447 152.554 222.137 152.312 222.623 152.2C223.145 152.079 223.543 152.078 223.56 152.079H223.713V152.078ZM220.202 155.531C220.615 155.502 221.728 155.356 222.465 154.632C223.203 153.906 223.363 152.8 223.398 152.39C222.985 152.419 221.872 152.565 221.135 153.289C220.397 154.015 220.237 155.121 220.202 155.531Z" fill="#E4E4E4"/>
<path d="M222.518 156.039C221.273 156.899 219.567 156.598 219.567 156.598C219.567 156.598 219.881 154.903 221.127 154.042C222.371 153.182 224.077 153.483 224.077 153.483C224.077 153.483 223.763 155.178 222.518 156.039Z" fill="#F2F2F2"/>
<path d="M65.6134 148.073L65.7104 148.156C65.7212 148.165 65.9715 148.38 66.2363 148.739C66.4818 149.073 66.7849 149.599 66.8352 150.213C66.8855 150.826 66.6723 151.394 66.4842 151.764C66.2818 152.161 66.0698 152.414 66.0602 152.425L65.9775 152.523L65.8805 152.441C65.8697 152.431 65.6194 152.216 65.3546 151.857C65.1091 151.523 64.806 150.997 64.7557 150.383C64.7054 149.77 64.9186 149.202 65.1067 148.832C65.3091 148.435 65.5211 148.182 65.5295 148.171L65.6122 148.073H65.6134ZM65.9476 152.155C66.15 151.877 66.6519 151.09 66.5813 150.234C66.5106 149.376 65.8877 148.683 65.6433 148.441C65.4409 148.719 64.939 149.506 65.0097 150.362C65.0803 151.22 65.7032 151.913 65.9476 152.155Z" fill="#E4E4E4"/>
<path d="M67.5132 150.954C67.3982 152.207 66.2925 153.131 66.2925 153.131C66.2925 153.131 65.3738 152.023 65.4888 150.77C65.6038 149.517 66.7094 148.594 66.7094 148.594C66.7094 148.594 67.6282 149.701 67.5132 150.954Z" fill="#F2F2F2"/>
<path d="M41.3757 162.544L41.4835 162.537C41.4955 162.537 41.7722 162.519 42.1435 162.581C42.4885 162.638 42.9808 162.778 43.3725 163.117C43.7642 163.456 43.9703 163.924 44.0757 164.255C44.1883 164.612 44.2098 164.889 44.2098 164.901L44.2182 165.007L44.1104 165.014C44.0984 165.014 43.8217 165.032 43.4504 164.97C43.1054 164.913 42.6131 164.773 42.2214 164.434C41.8297 164.095 41.6236 163.628 41.5182 163.296C41.4056 162.939 41.3841 162.662 41.3841 162.65L41.3757 162.544ZM43.9822 164.804C43.9403 164.519 43.7786 163.752 43.2312 163.277C42.6825 162.802 41.8991 162.749 41.6093 162.747C41.6512 163.032 41.8129 163.8 42.3603 164.274C42.9089 164.749 43.6924 164.802 43.9822 164.804Z" fill="#E4E4E4"/>
<path d="M44.2158 163.167C44.8854 163.988 44.7644 165.19 44.7644 165.19C44.7644 165.19 43.5581 165.061 42.8897 164.24C42.2213 163.419 42.3411 162.217 42.3411 162.217C42.3411 162.217 43.5474 162.346 44.2158 163.167Z" fill="#F2F2F2"/>
<path d="M191.572 159.286L191.693 159.283C191.706 159.283 192.017 159.276 192.431 159.362C192.814 159.442 193.36 159.621 193.784 160.019C194.207 160.418 194.418 160.951 194.52 161.328C194.63 161.734 194.641 162.044 194.641 162.057L194.644 162.178L194.523 162.181C194.51 162.181 194.199 162.188 193.786 162.103C193.402 162.023 192.856 161.844 192.432 161.445C192.009 161.047 191.798 160.513 191.696 160.136C191.586 159.73 191.575 159.42 191.575 159.407L191.572 159.286ZM194.392 161.939C194.357 161.617 194.211 160.749 193.62 160.193C193.027 159.636 192.15 159.541 191.826 159.525C191.861 159.847 192.007 160.715 192.597 161.271C193.19 161.828 194.067 161.924 194.392 161.939Z" fill="#E4E4E4"/>
<path d="M194.728 160.113C195.441 161.064 195.251 162.407 195.251 162.407C195.251 162.407 193.904 162.207 193.191 161.256C192.479 160.305 192.669 158.963 192.669 158.963C192.669 158.963 194.016 159.162 194.728 160.113Z" fill="#F2F2F2"/>
<path d="M158.174 170.115H102.483L103.496 166.46L105.475 159.324L106.673 155.004L108.44 148.634L111.845 136.354L113.612 129.983L126.033 85.1997H134.624L139.176 101.612L147.045 129.983L148.812 136.354L152.217 148.634L153.984 155.004L157.161 166.46L158.174 170.115Z" fill="url(#paint0_linear_335_4547)"/>
<path d="M158.174 170.115H102.483L103.496 166.46L105.475 159.325C144.284 157.041 139.177 101.613 139.177 101.613L157.162 166.462L158.175 170.117L158.174 170.115Z" fill="#F99F1B"/>
<path d="M169.568 170.115H91.0873V177.548H169.568V170.115Z" fill="url(#paint1_linear_335_4547)"/>
<path d="M158.174 170.115H102.483L103.496 166.46H157.161L158.174 170.115Z" fill="#EA8B00"/>
<path d="M148.811 136.354C148.811 136.354 147.645 160.872 119.367 166.48L157.162 166.46L148.811 136.354Z" fill="#F99F1B"/>
<path d="M148.811 136.354H111.845L113.612 129.983H147.045L148.811 136.354Z" fill="white"/>
<path d="M153.984 155.003H106.673L108.44 148.634H152.217L153.984 155.003Z" fill="white"/>
<path d="M151.416 170.115C151.416 170.115 141.013 177.938 102.483 177.548H169.569V170.115H151.417H151.416Z" fill="#F99F1B"/>
<path d="M181.1 177.451H78.4629C77.7663 177.451 77.2015 178.014 77.2015 178.708V178.743C77.2015 179.437 77.7663 180 78.4629 180H181.1C181.797 180 182.361 179.437 182.361 178.743V178.708C182.361 178.014 181.797 177.451 181.1 177.451Z" fill="#44327C"/>
<path d="M80.4082 177.451H63.7878C63.0912 177.451 62.5264 178.014 62.5264 178.708V178.743C62.5264 179.437 63.0912 180 63.7878 180H80.4082C81.1049 180 81.6696 179.437 81.6696 178.743V178.708C81.6696 178.014 81.1049 177.451 80.4082 177.451Z" fill="#44327C"/>
<path d="M56.1681 177.451H38.7056C38.0089 177.451 37.4442 178.014 37.4442 178.708V178.743C37.4442 179.437 38.0089 180 38.7056 180H56.1681C56.8648 180 57.4295 179.437 57.4295 178.743V178.708C57.4295 178.014 56.8648 177.451 56.1681 177.451Z" fill="#44327C"/>
<path d="M203.257 177.451H188.923C188.227 177.451 187.662 178.014 187.662 178.708V178.743C187.662 179.437 188.227 180 188.923 180H203.257C203.954 180 204.518 179.437 204.518 178.743V178.708C204.518 178.014 203.954 177.451 203.257 177.451Z" fill="#44327C"/>
<path d="M221.997 177.451H211.094C210.397 177.451 209.832 178.014 209.832 178.708V178.743C209.832 179.437 210.397 180 211.094 180H221.997C222.693 180 223.258 179.437 223.258 178.743V178.708C223.258 178.014 222.693 177.451 221.997 177.451Z" fill="#44327C"/>
<defs>
<linearGradient id="paint0_linear_335_4547" x1="128.886" y1="96.2516" x2="128.886" y2="143.856" gradientUnits="userSpaceOnUse">
<stop stop-color="#FFD056"/>
<stop offset="1" stop-color="#F59C31"/>
</linearGradient>
<linearGradient id="paint1_linear_335_4547" x1="128.295" y1="171.083" x2="128.295" y2="175.25" gradientUnits="userSpaceOnUse">
<stop stop-color="#FFD056"/>
<stop offset="1" stop-color="#F59C31"/>
</linearGradient>
</defs>
</svg>
